<svg xmlns="http://www.w3.org/2000/svg" viewBox="0 0 100 100">
  <circle cx="50" cy="50" r="50" fill="#CC4444"/>
  <g transform="translate(-53,132) scale(0.045,-0.045)">
    <path fill="white" d="M2404 2439 c17 -14 26 -30 26 -49 0 -16 -25 -107 -55 -201 -30 -94
-55 -178 -55 -185 0 -12 41 -14 231 -14 l231 0 c29 0 58 -41 58 -101
0 -37 -9 -49 -110 -157 -60 -64 -201 -210 -312 -325 -219 -223 -227 -229
-282 -186 -17 14 -26 30 -26 49 0 16 25 107 55 201 30 94 55 178 55 185 0 12
-41 14 -231 14 l-231 0 c-29 0 -58 41 -58 101 0 37 9 49 110 157 60
64 201 210 312 325 219 223 227 229 282 186z"/>
  </g>
</svg>
